# xmcd
#
# Track frame offsets:
#	150
#	14357
#	26155
#	41876
#	54231
#	69299
#	83460
#	96844
#	108323
#	120624
#	132516
#	146813
#	159418
#	172531
#	184366
#	196088
#	207953
#	218352
#	229313
#	244188
#
# Disc length: 3431 seconds
#
# Revision: 1
# Processed by: cddbd v1.5.2PL0 Copyright (c) Steve Scherf et al.
# Submitted via: audiograbber 1.83.01
#
DISCID=0d0d6514
DTITLE=Muddy Waters - L'Anthologie du Blues #2
DYEAR=2016
DGENRE=Blues
TTITLE0=Rolling Stone
TTITLE1=Gypsy Woman
TTITLE2=Country Blues
TTITLE3=I Can't Be Satisfied
TTITLE4=Ramblin' Kid Blues
TTITLE5=I Be's Troubled
TTITLE6=Jittering Blues
TTITLE7=Little Anna Mae
TTITLE8=Good Loocking Woman
TTITLE9=Mean Disposition
TTITLE10=I Feel Like Going Home
TTITLE11=Train Fare Home
TTITLE12=Down South Blues
TTITLE13=Kind Hearted Woman
TTITLE14=Sittin' Here And Drinkin'
TTITLE15=You're Gonna Miss Me
TTITLE16=Mean Red Spider
TTITLE17=Standing Here Trembling
TTITLE18=Steamline Woman
TTITLE19=Louisiana Blues
EXTD=
EXTT0=
EXTT1=
EXTT2=
EXTT3=
EXTT4=
EXTT5=
EXTT6=
EXTT7=
EXTT8=
EXTT9=
EXTT10=
EXTT11=
EXTT12=
EXTT13=
EXTT14=
EXTT15=
EXTT16=
EXTT17=
EXTT18=
EXTT19=
PLAYORDER=
